<svg xmlns="http://www.w3.org/2000/svg" xmlns:xlink="http://www.w3.org/1999/xlink" version="1.1" x="0px" y="0px" viewBox="0 0 32 40" style="enable-background:new 0 0 32 32;" xml:space="preserve"><title>contacts</title><path d="M27,6H5C3.9,6,3,6.9,3,8v16c0,1.1,0.9,2,2,2h22c1.1,0,2-0.9,2-2V8C29,6.9,28.1,6,27,6z M16,8.4c2.1,0,3.8,1.7,3.8,3.8  s-1.7,3.8-3.8,3.8s-3.8-1.7-3.8-3.8S13.9,8.4,16,8.4z M8,23.6c0-3.1,2.5-5.6,5.6-5.6c0,0,0,0,0,0h4.7c3.1,0,5.6,2.5,5.6,5.6H8z"/><path d="M24,28H8c-0.6,0-1,0.4-1,1s0.4,1,1,1h16c0.6,0,1-0.4,1-1S24.6,28,24,28z"/><path d="M8,4h16c0.6,0,1-0.4,1-1s-0.4-1-1-1H8C7.4,2,7,2.4,7,3S7.4,4,8,4z"/><text x="0" y="47" fill="#000000" font-size="5px" font-weight="bold" font-family="'Helvetica Neue', Helvetica, Arial-Unicode, Arial, Sans-serif">Created by pertiwi putri</text><text x="0" y="52" fill="#000000" font-size="5px" font-weight="bold" font-family="'Helvetica Neue', Helvetica, Arial-Unicode, Arial, Sans-serif">from the Noun Project</text></svg>